<?xml version="1.0"?><svg width="455.67432" height="548.45612" xmlns="http://www.w3.org/2000/svg">
 <title>nuclear explosion</title>

 <metadata id="metadata7">image/svg+xmlnuclear explosion2011-12-30tzunghaor (Prim Andr  s)openclipart.orgnuclearnukeatomic bombbombexplosionweaponmushroom cloud</metadata>
 <g>
  <title>Layer 1</title>
  <g id="layer2">
   <path fill="#000000" fill-rule="nonzero" stroke-width="1.2" id="path3084" d="m241.62616,0.040375c-11.593628,1.433197 -22.470612,6.088806 -34.335663,5.836014c-5.449921,-0.065689 -11.463623,2.826813 -15.976837,-1.179764c-10.344849,-5.038864 -21.661072,-0.041 -30.96875,4.6875c-13.469849,-0.017899 -27.545898,-0.643875 -40,5.4375c-8.286133,2.802979 -16.849335,4.178009 -25.125,6.6875c-7.692276,3.187439 -12.85556,10.349213 -21.03125,12.46875c-15.509247,8.291611 -29.391541,19.79277 -40.5,33.375c-8.666931,10.868713 -21.408127,19.365234 -25.765228,33.2771c-4.706848,11.495209 -6.424408,24.876617 -1.641022,36.6604c-2.638382,8.35556 -10.211472,18.0867 -3.71875,26.71875c2.721878,4.093872 8.973785,7.29361 6.34375,13.09375c-4.597855,10.902313 -6.985031,23.234253 -2.96875,34.71875c1.573013,9.760834 11.154556,16.079681 20.749207,15.164978c6.036835,-1.246002 5.589539,7.004181 7.688293,10.585022c1.780014,7.448639 7.937775,12.968475 15.459106,14.22052c4.924606,1.446381 10.119507,2.291931 15.040894,3.37323c6.611618,10.23822 20.083221,13.120239 31.3125,9.9375c4.147156,-1.059631 7.975952,2.401978 12.3125,1.96875c3.782471,-0.704285 5.860382,1.829224 8.625,3.8125c9.323547,5.779053 22.262817,4.562836 30.34375,-2.53125c7.60556,4.230621 16.451172,-0.054596 22.28125,-5.3125c4.044617,3.00293 9.207031,1.035187 13.21875,0.15625c2.275543,2.639435 0.541931,8.562286 1.314972,12.404724c0.462097,16.129608 1.606567,32.310028 -0.908722,48.314026c-1.273956,3.268524 0.865906,10.683838 -2.125,11.875c-4.891663,-0.565399 -9.472565,2.5755 -13.90625,3.3125c-11.434387,-3.867828 -23.062195,-13.089233 -35.65625,-7.96875c-5.134674,0.26767 -11.174438,-0.189301 -14.8125,4.40625c-1.431305,3.138153 -3.96933,3.154816 -7.03125,3.125c-5.18277,-0.218628 -7.705994,5.420197 -12.8125,4.71875c-10.175491,1.080566 -18.665955,14.723419 -10.40625,22.9375c3.748962,3.119476 8.910583,2.775116 12.9375,5.5c5.121887,2.12677 10.835876,-0.127533 15.1875,-2.125c5.587646,3.968109 13.572052,2.362915 19,0.5c6.648193,6.748962 17.524719,6.904419 24.9375,1.3125c4.194122,2.873596 9.928864,1.959442 14.21875,1.71875c1.93927,2.219574 7.148834,1.725189 5.03125,5.90625c-4.928589,29.737854 -9.905426,59.510193 -14.75,89.28125c-2.590393,0.641785 -4.916473,2.383118 -6.21875,-0.96875c-7.038147,-8.101746 -18.247192,-15.863953 -29.25,-12c-4.040619,-4.198608 -10.786835,-3.412537 -15.3125,-1.375c-6.924347,-16.174377 -31.044235,-23.510803 -44,-10.09375c-4.218781,3.828003 -6.744965,9.461975 -8.125,14.65625c-7.868439,-0.712952 -15.949234,5.656982 -17.8125,13.21875c-12.07869,1.559753 -23.554565,12.002258 -21.8125,24.90625c0.4328,5.537109 3.911972,10.658875 9,12.9375c0.87851,3.171051 0.580276,5.497345 -1.46875,8.156281c-4.757095,9.546143 3.973145,21.187134 14.375,20.09375c3.779343,0.355103 7.888535,-2.724976 10.3125,1.40625c8.080872,6.02832 18.858673,4.31543 27.90625,1.84375c5.410294,4.021362 12.79631,3.789551 18.875,2.78125c5.79657,2.764282 12.652161,1.283936 18.0625,-1c6.118774,1.911499 12.877228,0.632446 18.34375,-2.0625c6.864197,3.490479 14.553436,0.987915 21.5,-0.03125c13.535156,5.197144 27.939087,1.831909 41.90625,1.46875c15.992828,3.22229 33.307007,7.324341 49.25,1.5625c2.642029,-1.356812 5.032196,-3.484375 7.34375,-0.5c6.589905,4.140137 14.08667,-0.967773 21.125,1.375c10.409027,1.162598 23.109772,0.497192 29.78125,-8.78125c2.900024,3.237915 7.653198,3.54541 11.34375,4.15625c7.649445,7.328125 20.657257,7.15564 29.5625,2.28125c3.940277,0.615845 8.512695,1.786865 12.375,3.78125c10.408569,2.638306 23.528687,4.370117 32.21875,-3.40625c3.029846,-2.12085 1.840271,-7.451294 6.25,-7.40625c12.000183,-5.059082 20.713745,-17.816284 18.71875,-31.093719c-0.865479,-7.228149 -3.801392,-15.710327 -10.84375,-18.6875c1.036377,-15.419189 -11.495972,-31.639893 -27.34375,-32.0625c-3.543945,-8.337463 -14.329712,-11.855164 -22.5625,-8.90625c-9.440063,-10.033691 -25.79715,-5.925598 -35.34375,1.8125c-3.032166,1.599548 -4.459045,6.520752 -7.5625,6.75c-5.182495,-0.858948 -10.318451,2.092163 -13.125,6.1875c-3.675415,-0.830505 -6.925507,2.707153 -9.5625,3.375c-5.056885,-3.550964 -11.716675,-3.07959 -17.5,-2c-2.314362,-28.10144 -5.112274,-55.978088 -5.1875,-84.15625c4.479248,-0.588379 8.104919,-3.709503 11.21875,-6.53125c5.523407,0.229858 9.611908,5.291595 15.28125,5.65625c6.243561,1.762085 12.232574,-1.472107 17.875,-3.40625c11.014252,1.594513 24.756012,4.29834 33.53125,-4.34375c6.281982,-6.385132 3.506958,-19.00296 -5.875,-20.46875c-0.662811,-5.337921 -5.955658,-8.246948 -10.0625,-9.90625c-2.345795,-5.874084 -8.934601,-8.01825 -14.6875,-8.21875c-7.585175,-5.175568 -18.521179,-6.442657 -25.5,0.46875c-2.824921,2.44281 -5.009613,5.570801 -9.09375,4.21875c-3.576538,0.039795 -6.858124,1.438751 -9.53125,-1.59375c-3.679474,-0.65741 -4.665192,-2.631622 -3.839325,-6.311859c1.629456,-20.623596 -0.138672,-43.299469 0.964325,-62.594391c6.891235,5.042206 16.853912,7.06546 24.46875,2.375c4.308807,2.782684 9.991669,1.790009 14.1875,-0.78125c13.347565,3.644623 28.994324,9.163544 42.09375,1.9375c3.828522,-2.332642 6.585205,-6.064362 8.375,-10.125c8.418945,6.511993 22.329895,9.568298 30.0625,0.375c2.423035,-2.778839 3.889343,-6.293701 4.46875,-9.90625c13.960449,-1.006805 30.745117,-7.074005 34.21875,-22.34375c1.402039,-6.136932 0.61731,-12.51123 -0.78125,-18.5625c10.518127,-4.263702 21.677368,-13.714447 19.65625,-26.3125c-0.313232,-5.725128 -4.506592,-10.710968 -6.4375,-15.375c2.212708,-2.892975 -0.666382,-7.756439 4.125,-8.34375c10.94397,-5.174896 15.274475,-19.016907 10.8125,-29.96875c-4.736206,-13.979187 -15.676941,-25.034103 -26.71875,-34.062515c-7.07074,-18.356583 -21.25061,-33.516068 -37.25,-44.59375c-3.598267,-1.805725 -6.938171,-3.516113 -8.5625,-7.46875c-8.182983,-12.084381 -22.765747,-19.37912 -37.405823,-17.970596c-5.673523,-0.003998 -11.672485,1.875839 -16.531677,-2.091904c-9.165588,-4.791672 -19.093018,-9.235092 -29.71875,-7.71875c-11.874481,-0.069595 -23.975983,-1.932892 -35.1875,-5.78125c-6.691833,-2.814072 -13.36557,-7.359634 -20.9375,-6.843796z"/>
   <path fill="#bfbfbf" fill-rule="nonzero" stroke-width="1.2" id="path3035" d="m191.077148,230.126373c0,0 3.307007,77.166016 2.205017,81.575012c-1.10202,4.410004 -4.847992,57.235992 -6.614014,67.244995c-3.307007,18.73999 -19.842987,120.15802 -19.842987,120.15802l101.417999,-1.102051c0,0 -7.716003,-89.291992 -7.716003,-95.906982c0,-6.614014 -2.204987,-73.858002 -1.102997,-79.369995c1.102997,-5.511993 0,-91.497009 0,-91.497009l-68.347015,-1.10199z"/>
   <path fill="#3f3f3f" fill-rule="nonzero" stroke-width="1.2" id="path3069" d="m188.161163,357.292389c-0.080994,0.458984 -0.688019,19.653015 -1.847015,23.71698c3.990021,-0.690002 6.118011,-4.787994 12.333008,-2.156982c4.160004,1.761963 7.225006,-0.515015 14.01001,0.781982c8.64798,1.653015 4.699005,2.067993 15.73999,-0.643005c9.662018,-2.372986 14.062012,1.091003 19.29599,-2.709991c7.419006,-2.783997 11.807007,-0.893005 12.371002,6.259003c-0.352997,-13.631989 -1.381989,-18.848999 -1.507996,-31.697998l-70.394989,6.450012z"/>
   <path fill="#bfbfbf" fill-rule="nonzero" stroke-width="1.2" id="path3037" d="m186.943573,346.150452c-5.04422,-2.381165 -7.440979,-3.031494 -16.259949,1.37796c-3.049011,1.524506 -9.094574,-1.653534 -11.850494,-2.480316c-2.75592,-0.826782 -15.157593,-9.094574 -22.874176,-6.338623c-7.716583,2.75592 -8.07196,-0.055206 -11.57486,1.653534c-2.978058,1.452728 -4.133911,7.165405 -7.165436,6.889832c-3.031494,-0.275604 -8.543365,-0.826782 -9.370148,1.37796c-0.826752,2.204742 -3.881287,2.658539 -8.543365,3.031525c-6.889801,0.551178 -10.196899,8.818939 -4.960663,9.094543c5.805603,0.305573 8.543365,6.889801 16.535553,0.826782c2.680115,-2.033173 5.787445,-5.511841 6.338623,-3.582703c0.551178,1.929138 0.957214,5.119415 4.685089,5.511841c10.472504,1.102356 7.716583,-5.236267 10.748108,-5.236267c3.031525,0 6.034515,7.661713 13.228424,8.81897c4.649567,0.747955 10.19693,-4.960663 13.228455,-4.960663c3.031525,0 2.340027,2.823792 7.992188,3.031525c5.245392,0.19278 3.031494,-4.133911 5.511841,-3.858307c2.480347,0.275604 4.175232,8.847992 15.433167,7.165405c6.598389,-0.986176 6.338654,-7.44101 11.57489,-7.165405c5.236267,0.275604 6.614227,-0.275604 12.677277,2.204742c6.063019,2.480347 19.291473,1.653564 21.220612,0.551178c1.929138,-1.102356 9.370148,-1.929138 9.370148,-1.929138c0,0 0.826782,3.307098 4.960663,3.031525c4.133881,-0.275604 7.44101,-4.960663 9.370148,-4.409485c1.929138,0.551178 4.960663,8.267761 9.921326,7.44101c4.960663,-0.826782 6.889832,-6.614227 10.19693,-6.614227c3.307098,0 6.889801,0 9.645752,1.653534c2.75592,1.653564 8.543335,4.960693 13.228424,4.409485c4.685059,-0.551178 8.543365,-4.133881 12.677246,-3.858276c4.133911,0.275574 14.330811,3.307098 23.976563,0.551178c4.835602,-1.381592 6.163574,-8.030609 1.37796,-8.543365c-7.716583,-0.826782 -9.370148,2.480316 -9.370148,2.480316c0,0 8.543365,-12.126068 -1.929138,-11.850464c-5.027374,0.132294 -4.960693,0.826782 -4.960693,0.826782c0,0 4.960693,-9.645752 -6.889801,-9.094574c-3.028259,0.140869 -10.472504,-7.440979 -16.811127,-3.582703c-6.338654,3.858307 -11.529541,11.566711 -11.850494,9.921356c-0.576508,-2.955566 -12.100983,-2.279999 -14.330811,0.826782c-0.662567,0.923126 -2.434723,-7.632965 -8.543365,-5.511871c-9.141754,3.174316 -8.267761,8.543365 -9.921326,8.543365c-1.653564,0 -1.142639,-4.748749 -6.614227,-3.031494c-6.533539,2.050507 -8.267761,6.889801 -11.57489,6.889801c-3.307098,0 -9.370148,-4.409485 -11.850464,-6.338623c-2.480347,-1.929169 -14.881989,-5.511871 -24.252136,0.275574c-9.370148,5.787445 -9.566193,1.338501 -12.401672,0z"/>
   <path fill="#3f3f3f" fill-rule="nonzero" stroke-width="1.2" id="path3039" d="m153.659454,477.047821c0.731293,-2.48645 -20.169098,-25.665771 -26.892517,-9.353943c-1.470306,3.5672 -1.94873,-7.405151 -6.625702,-7.794922c-4.676941,-0.389709 -9.743652,6.235962 -9.743652,6.235962l-3.507721,-1.94873c0,0 -0.77951,-14.030884 -15.200134,-18.707825c-14.420624,-4.677002 -22.13501,7.518555 -22.995041,14.420593c-0.604721,4.852905 -1.16925,11.692383 -1.16925,11.692383c0,0 -6.842911,-7.53009 -10.912903,-5.066711c-14.810379,8.964233 3.117966,12.082153 3.117966,12.082153c0,0 -18.975662,-2.454346 -27.282257,6.235962c-4.342361,4.542969 -4.287216,12.082153 -1.16925,14.810364c3.117981,2.728271 9.743668,3.897461 9.743668,3.897461c-4.895584,5.052979 -2.845398,7.790741 1.55899,9.743744c0,0 -10.133408,6.23584 -6.235947,12.471802c3.897461,6.235962 17.928345,-0.389648 17.928345,-0.389648c0,0 0.93396,9.276855 13.641129,8.574341c7.613647,-0.420898 22.215561,-5.456421 22.215561,-5.456421c0,0 -7.893753,4.200195 -2.33847,5.846191c10.523163,3.11792 12.861633,-3.50769 12.861633,-3.50769c0,0 -1.158966,4.303223 5.066711,5.06665c6.697479,0.821289 8.964172,-3.50769 8.964172,-3.50769c0,0 6.912048,2.25647 10.912903,1.94873c5.066711,-0.389771 10.133423,-4.677002 10.133423,-4.677002c0,0 4.287231,4.287231 10.523163,3.507813c4.510101,-0.563843 11.302643,-2.338501 11.302643,-2.338501c0,0 9.353943,3.897461 19.487335,3.50769c10.133423,-0.389771 21.046326,-2.728271 27.672028,-0.779541c6.625671,1.94873 28.841217,6.235962 40.53363,1.559082c2.826294,-1.130615 8.184692,-5.066772 10.523163,-3.897461c2.33847,1.169189 3.897461,5.456421 8.574432,4.287109c4.676941,-1.169189 8.574432,-0.779419 8.574432,-0.779419c14.019073,1.93689 25.767334,1.603027 28.451508,-7.794922l9.353912,-0.779541c4.157318,7.061035 8.314606,2.64978 12.471893,3.897461c0,0 -0.77948,6.235962 11.302673,6.235962c12.082123,0 12.082123,-7.015381 12.082123,-7.015381c0,0 4.676971,5.06665 8.964172,5.06665c4.287231,0 3.897461,2.728271 12.082153,3.897461c8.184692,1.169189 18.707825,1.169189 19.877075,-4.677002c1.16925,-5.846191 1.94873,-7.015381 1.94873,-7.015381c0,0 5.229614,4.066162 15.589905,-7.405151c4.243408,-4.698608 6.162781,-15.436859 0.77948,-24.554108c-2.525574,-4.277222 -12.471924,-1.94873 -12.471924,-1.94873c0,0 5.846252,-4.676941 4.677002,-12.082092c-2.179016,-13.800293 -13.641174,-20.656616 -20.266846,-19.097595c-6.625732,1.55896 -6.625671,3.11792 -6.625671,3.11792c0,0 4.758362,-11.348328 -6.625732,-13.251343c-10.485962,-1.75293 -8.574402,9.743652 -8.574402,9.743652c0,0 -2.368958,-15.969238 -14.420624,-14.810364c-19.865784,1.910278 -22.995056,19.097595 -22.995056,19.097595c0,0 -1.948761,-5.066711 -7.015442,-4.677002c-5.066711,0.389771 -5.846222,9.743713 -5.846222,9.743713c0,0 -2.33847,-3.117981 -5.456451,-3.507751c-3.11795,-0.389709 -9.743652,10.523193 -9.743652,10.523193c0,0 -1.182648,-9.188171 -7.015442,-9.743713c-16.369354,-1.55896 -15.200134,9.353943 -17.148865,10.523193c-1.94873,1.16925 -3.117981,-6.625732 -14.030884,-1.559021c-4.030548,1.871338 -9.743652,11.692444 -12.471893,12.082153c-2.728241,0.389771 -1.285583,-4.659485 -6.625702,-5.846191c-17.538574,-3.897461 -20.656555,3.507751 -24.164276,1.94873c-3.507721,-1.55896 -3.881287,-13.527893 -10.912903,-14.030884c-14.77774,-1.057068 -15.589874,9.743713 -15.589874,9.743713c0,0 -0.77948,-4.677002 -3.507721,-4.287231c-2.72821,0.389709 -4.676971,4.287231 -6.235931,4.287231c-1.55899,0 0,-3.507751 -4.676971,-4.677002c-4.676971,-1.16925 -8.184692,2.338501 -10.133423,3.507751c-1.94873,1.16925 -4.287201,-2.338501 -4.287201,-2.338501z"/>
   <path fill="#3f3f3f" fill-rule="nonzero" stroke-width="1.2" id="path3041" d="m84.828079,39.193069c-15.589874,3.117981 -42.872131,29.620758 -44.431122,33.518219c-1.55899,3.897461 -18.852539,16.760635 -23.384796,28.061752c-4.265396,10.635681 -7.794937,21.825806 -2.338486,34.297699c1.900467,4.343933 -6.235947,16.369354 -6.235947,21.046326c0,4.676971 8.719131,8.370361 9.353928,15.589874c1.16423,13.240997 -10.133423,17.928345 -3.117981,39.75415c3.633209,11.303345 15.495911,4.050079 21.046326,9.353912c5.460693,5.218109 6.235947,17.148865 10.133408,20.266846c3.897476,3.117981 24.164307,6.235931 24.164307,6.235931c0,0 3.897461,8.574432 12.471878,10.133423c8.574432,1.55899 17.148865,-3.117981 19.487335,-0.77948c2.33847,2.33847 15.589874,2.33847 15.589874,2.33847c0,0 1.55899,6.235962 12.471893,7.015442c10.912903,0.77951 16.369354,-10.133423 16.369354,-10.133423c4.201385,5.368256 8.272461,10.997192 22.605316,-3.897461c3.802002,1.871857 6.753998,8.843811 12.471893,-0.77951c3.035278,10.000946 27.441437,0.912323 21.825806,-12.471863c10.943665,19.946136 41.029755,7.053131 42.872131,2.33847c1.827606,10.442841 10.192352,9.445648 20.266815,5.456451c-0.756989,7.159698 20.457764,23.869293 28.061768,4.676941c3.114319,2.498779 -0.654083,13.256805 11.692413,4.676971c35.894012,11.878143 41.185883,4.629913 44.431091,-3.897461l3.118011,-9.353912c27.450134,26.444794 33.611877,2.080261 28.841248,-3.117981c49.230713,-0.89505 34.194336,-28.109314 33.518188,-38.19516c20.862671,-7.766388 29.189575,-17.241241 10.912903,-36.6362c6.005432,-2.965302 6.954834,-6.652924 -1.55896,-11.692413c43.601746,-5.608917 10.499451,-45.456909 -5.456482,-54.564514c-3.117981,-16.369354 -27.282227,-41.313141 -39.75415,-45.990112c-4.128723,-1.548264 -5.456421,-12.471893 -21.046326,-19.48732c-8.589081,-3.865082 -24.943787,-0.77951 -28.061737,-1.55899c-3.117981,-0.779495 -17.928375,-9.353928 -24.164307,-10.133408c-6.235931,-0.77951 -10.133423,0.77948 -21.825806,-0.77951c-11.692413,-1.558975 -21.046326,-3.897461 -23.384796,-4.676956c-2.338501,-0.779495 -10.912903,-5.456451 -16.369385,-7.015442c-5.456451,-1.558975 -17.928314,3.897476 -27.282257,4.676956c-9.353912,0.77951 -26.502777,2.338486 -26.502777,2.338486c0,0 -2.33847,-4.676956 -10.133392,-4.676956c-7.794952,0 -13.251404,4.676956 -17.928345,6.235947c-4.676971,1.55899 -10.133423,0 -21.825836,0.779495c-11.692383,0.779495 -14.810364,3.897461 -21.046295,5.456451c-6.235962,1.55899 -12.471893,3.897461 -18.707855,4.676971c-6.235947,0.77948 -17.148849,10.912888 -17.148849,10.912888z"/>
   <path fill="#bfbfbf" fill-rule="nonzero" stroke-width="1.2" id="path3062" d="m29.484055,89.080643c0,0 -16.36937,14.810379 -12.471893,24.164291c3.897461,9.353912 14.810364,14.030884 14.810364,14.030884c0,0 -12.471878,7.015442 -12.471878,17.148834c0,10.133423 11.692398,10.912933 11.692398,10.912933l8.574417,5.456451c0,0 -14.810379,10.912903 -6.235947,20.266815c8.574448,9.353912 17.92836,17.928345 29.620758,8.574432c-0.001999,26.4711 11.284546,23.91391 25.723282,13.251373c17.941498,18.2995 32.394623,11.715149 35.077209,-4.676941c3.732544,25.228394 25.520599,19.407074 22.605286,4.676941c8.658844,7.08017 16.792694,8.91037 23.384796,-4.676941c-0.777313,24.507385 20.438293,14.803497 37.41568,11.692383c22.388794,14.656189 30.293579,6.023926 33.518219,-10.133392c3.767029,9.680511 7.668823,17.330475 15.589874,12.471893c2.33847,6.235931 13.251404,6.235931 11.692413,-6.235962c11.892212,27.262878 39.23584,13.228333 40.53363,-0.77948l5.456451,-7.015442c17.052979,11.582581 27.140686,-1.263397 31.959229,-13.251404c2.036133,24.543152 25.044342,20.920685 29.620758,7.794952c11.642456,3.067993 18.929565,1.780731 14.030884,-11.692413c0,0 16.369385,11.692413 25.723267,7.015442c9.353943,-4.676971 -3.117981,-31.179718 -3.117981,-31.179718c0,0 0.77948,-3.897491 3.897461,-6.235962c3.117981,-2.33847 17.148865,-2.33847 18.707886,-5.456451c1.55896,-3.117981 -0.779541,-28.061752 -4.677002,-31.959229c-3.897461,-3.897461 -13.251343,-11.692398 -13.251343,-11.692398l-3.117981,-7.015442c0,0 -7.794922,-18.70784 -14.030884,-22.605316c-6.235962,-3.897446 -22.605347,-14.810364 -22.605347,-14.810364c0,0 -16.369324,-14.810364 -21.825806,-17.928345c-5.456451,-3.117981 -16.369324,-3.897461 -16.369324,-3.897461c0,0 -12.061554,-0.959351 -17.928375,-2.338486c-7.759003,-1.823929 -12.471893,-9.353912 -22.605286,-7.794937c-10.133423,1.55899 -11.793182,-1.971664 -17.928375,-3.117966c-10.866241,-2.030258 -29.620728,-7.015442 -31.179718,-9.353928c-1.55899,-2.33847 -10.133423,-1.55899 -21.825806,1.55899c-11.692413,3.117966 -35.077209,4.676956 -35.077209,4.676956c0,0 1.55899,-4.676956 -10.133423,-3.897461c-11.692383,0.77948 -17.148834,7.015442 -17.148834,7.015442c0,0 -26.502777,-1.55899 -33.518219,0c-7.015442,1.55899 -33.518219,14.810364 -33.518219,14.810364c0,0 -22.605301,10.912918 -28.061752,13.251389c-5.456467,2.338486 -12.471909,10.912918 -17.148865,14.810379c-4.676956,3.897461 -7.015442,14.030869 -10.912903,17.928345c-3.897461,3.897476 -12.471893,6.235947 -12.471893,6.235947z"/>
   <path fill="#ffffff" fill-rule="nonzero" stroke-width="1.2" id="path3076" d="m301.25116,334.728363c-4.26001,0.234009 -8.356995,6.411011 -10.062988,7.093018c-1.947998,0.779999 -3.406006,6.343994 -7,2.75c-2.727997,-2.727997 -9.764008,0.195007 -12.687012,3.312988c0,0 -0.947998,-6.828979 -5.625,-7.218994c-4.677002,-0.390015 -8.593994,3.906006 -8.593994,3.906006c0,0 -1.347015,5.25 -2.906006,5.25c-1.55899,0 -1.946014,-4.294006 -5.843994,-3.125c-3.897003,1.169983 -7.022003,0.987 -9.75,5.468994c0,0 -5.104004,1.209015 -7.812012,0.593994c-2.98999,-0.679993 -5.053009,-3.330994 -7.781982,-4.5c-2.727997,-1.169983 -5.775024,-4.281006 -9.75,-4.281006c-6.820007,0 -9.541016,1.56601 -14.218018,3.124023c-4.677002,1.55899 -8.756989,3.108978 -11.875,2.718994c-3.117981,-0.389008 -0.324982,-3.623016 -6.25,-4.281006c-7.015991,-0.779999 -7.104004,2.721008 -11.5,2.718994c-3.985992,-0.001984 -7.463989,-0.386993 -12.281006,-2.343994c-6.235992,-2.53299 -11.492981,-7.015015 -15,-6.625c-3.507996,0.390015 -16.187988,1.562012 -16.187988,1.562012c-5.455994,3.507996 -6.406006,7.593994 -6.406006,7.593994c0,0 -7.597992,-1.727997 -9.156006,1c-1.55899,2.727997 3.874023,3.093994 3.874023,3.093994l10.156982,-3.562012c-4.259979,10.785004 7.378998,6.769012 11.281006,3.906006c3.765015,5.998016 14.63501,4.041016 14.812012,-2.343994c1.41098,6.167999 4.440979,6.975006 8.968994,2.75c3.540985,4.574005 7.897003,3.423004 12.468994,0.781006c-0.924011,6.709991 14.398987,9.54599 19.5,3.093994c9.362,1.417999 16.440002,0.791992 19.468994,-3.093994c-0.024994,1.691986 3.247009,5.477997 8.687012,3.437988c1.552002,2.779999 14.442993,1.94101 17.031982,0.437012c7.828003,2.450989 18.197998,-1.929016 16,-3.5c17.551025,9.841003 14.942017,2.872986 21.437012,3.5l5.843994,-1.937012c5.664001,5.563995 16.569,6.740021 17.531006,-3.5c2.492004,6.992004 6.122986,7.746002 10.906006,2.312012c3.001007,5.160004 11.458984,4.906982 13.656006,1.562988l6.218994,-2.718994c0,0 4.695007,-4.609985 1.187988,-5c-3.507996,-0.390015 -9.375,0.375 -9.375,0.375c0,0 2.743011,-7.018005 -0.375,-8.187988c-3.117981,-1.169006 -6.628998,-1.751007 -8.187988,-2.531006c-1.559021,-0.778992 -6.360992,-2.432007 -8.562012,-3.312012c-0.609009,-0.243988 -1.234985,-0.315002 -1.843994,-0.281006zm-196.593994,17.718018c-0.106018,0.010986 -0.222015,0.044983 -0.343018,0.093994c-1.948975,0.778992 -4.281982,1.562012 -4.281982,1.562012c-4.677002,2.338989 -3.113998,6.619995 1.562988,4.281982c4.384003,-2.192993 4.651001,-6.100983 3.062012,-5.937988l0,0z"/>
   <path fill="#bfbfbf" fill-rule="nonzero" stroke-width="1.2" id="path3080" d="m88.31366,447.759125c-11.483826,0 -14.041794,3.417175 -16.59375,13.625c-2.551956,10.207825 -1.28125,14.46875 -1.28125,14.46875l-7.21875,5.9375c0,0 -25.956573,-0.010193 -25.53125,5.09375c0.425323,5.103943 -0.397354,6.829956 4.28125,8.53125c4.678604,1.701294 14.875,-2.125 14.875,-2.125c0,0 -6.376633,5.948059 -4.25,8.5c2.126633,2.551941 19.125,-6.3125 19.125,-6.3125c-7.721405,16.094055 28.480072,14.458862 29.78125,9.78125c11.425201,4.68457 12.10318,-1.263123 8.9375,-5.9375c5.246094,6.873108 16.159729,9.134216 17.84375,4.65625c4.53006,9.27774 14.366791,6.840393 23.84375,5.125c-0.426178,11.320221 7.74707,8.169952 16.15625,4.656281c9.646362,8.743286 26.64978,4.511841 28.90625,-2.531281c-1.445099,9.087311 24.90329,5.159332 25.09375,2.968781c12.086273,5.969849 19.228821,1.914673 26.375,-2.125c-1.311554,5.921631 9.274902,6.98877 17.03125,2.125c7.699249,3.193604 9.690582,0.324219 8.90625,-5.531281c6.206024,9.678741 15.136505,3.83316 16.59375,0.4375c8.12616,2.901154 6.073761,-2.221802 6.8125,-5.125c2.412445,10.406281 14.547821,4.596069 14.875,1.71875c0.259247,1.675659 6.013519,7.854645 8.9375,-1.28125c0.904083,4.571899 2.253937,8.470856 8.9375,4.25c15.586334,4.949615 18.730591,-0.252686 19.15625,-7.65625c9.970215,6.470886 17.893433,7.581787 19.96875,-6.8125c16.681396,2.786865 11.701294,-0.085815 5.96875,-5.59375c5.195862,-0.742249 -0.938538,-5.169922 -1.28125,-5.53125c10.33783,4.822144 18.761108,-1.716614 17.875,-8.28125c-0.562805,-4.169678 -4.696411,-7.017456 -9.375,-8.71875c-4.678589,-1.701294 -11.90625,1.25 -11.90625,1.25c0,0 2.549988,-9.573059 -5.53125,-12.125c-8.081238,-2.551941 -8.09375,9.15625 -8.09375,9.15625c0,0 -8.0466,-13.040649 -16.5625,-13.1875c-12.334473,-0.212646 -20.649353,10.426514 -21.5,16.59375c-3.05191,0.647217 -4.229279,-4.456543 -6.78125,-4.03125c-2.551971,0.425354 -7.25,9.5625 -7.25,9.5625c0,0 -0.633911,-4.463501 -5.3125,-3.1875c-4.678589,1.276001 -8.5,11.6875 -8.5,11.6875c0,0 -5.370514,-11.29541 -10.625,-11.6875c-12.131439,-0.905273 -9.784882,11.699646 -13.1875,12.125c-3.402618,0.425354 -0.856293,-6.814148 -8.9375,-4.6875c-8.081207,2.126648 -18.28125,15.3125 -18.28125,15.3125c0,0 -3.053528,-6.791321 -8.53125,-7.65625c-12.121826,-1.91394 -23.8125,2.125 -23.8125,2.125c0,0 -4.873505,-12.96759 -10.625,-13.8125c-10.987366,-1.614075 -15.3125,10.40625 -15.3125,10.40625c0,0 -2.04538,-3.663635 -3.84375,-3.8125c-2.430878,-0.201172 -5.9375,4.25 -5.9375,4.25c0,0 -2.362823,-4.879395 -4.6875,-5.53125c-3.885132,-1.089478 -11.46875,3.8125 -11.46875,3.8125c0,0 -9.894287,-12.133179 -17.4375,-16.15625c-9.569855,-5.103943 -13.1875,4.6875 -13.1875,4.6875c0,0 -2.900146,-6.673523 -5.96875,-7.25c-3.992462,-0.75 -10.625,5.96875 -10.625,5.96875c0,0 -9.359924,-22.125 -20.84375,-22.125zm-30.75,21.53125c-1.216171,0.069824 -2.318176,0.658264 -3.0625,2.09375c-1.792023,3.456055 2.135544,3.387146 4.6875,3.8125c2.551956,0.425293 6.8125,-1.6875 6.8125,-1.6875c0,0 -4.789001,-4.428101 -8.4375,-4.21875z"/>
   <path fill="#ffffff" fill-rule="nonzero" stroke-width="1.2" id="path3930" d="m67.90007,58.59288c-11.879303,3.239609 -17.32106,8.955185 -14.461105,17.863724c-20.371658,7.569061 -8.248093,12.194031 -7.655899,17.863724c-1.974213,6.420074 -8.908997,16.147171 5.103928,11.909164c-18.407257,8.593597 0.80574,3.858749 1.746735,10.41568c-11.302505,13.062073 -6.526276,29.906311 18.714386,22.967682c-0.121368,12.394592 4.201477,7.01236 8.506531,1.701294c-7.240494,11.997223 9.596634,12.663818 20.41568,16.162415c7.050964,20.437469 37.421661,9.90683 43.383362,2.551971c13.691742,4.492737 9.451874,-4.147919 11.058502,-8.506531c11.640167,15.474182 32.242767,6.786102 31.474182,-9.357208c8.673828,-1.577667 19.390106,-0.977325 11.058502,-9.357178c18.064178,8.269745 24.249634,6.134125 21.092682,-3.731384c5.017914,9.873291 11.430878,11.37616 18.714386,7.655884c1.647705,5.054718 0.899658,11.275513 22.116974,6.805237c-7.089691,9.656189 1.470459,4.663208 11.058533,5.95459c9.242462,25.893524 12.607452,4.483459 18.077454,2.26004c4.101624,0.673737 9.979553,3.4198 7.655884,-3.402618c12.284515,10.103088 24.511566,24.745239 30.56308,5.207153c20.221375,4.757355 21.368286,-0.624298 16.162415,-12.759827c26.601257,2.629639 32.54425,-11.46521 26.637146,-21.515488c8.108215,6.795303 15.421814,7.630569 21.266357,-2.551956c15.597839,2.878769 16.118347,-6.401428 10.207825,-14.461121c5.861511,-6.684799 6.186279,-9.498383 -0.29187,-17.304977c-2.640198,-13.281952 -11.6073,-17.525375 -22.117004,-19.565033c-9.051819,-18.212585 -11.147034,-12.077255 -16.162415,-16.16243c-7.800781,-3.391983 -10.57608,-14.783905 -25.519653,-6.805222c-1.8349,-2.909317 -1.682831,-6.112244 -12.759796,-7.655884c-19.969452,-5.67067 -25.937012,-3.801865 -31.474213,-1.701324c-0.537384,-5.029846 -3.629303,-7.582428 -11.909149,-5.103912c-11.885468,-10.361908 -46.026703,-11.227142 -40.83136,-9.357193c-15.656677,-7.03772 -19.595459,0.246384 -25.519623,5.103928c-4.204498,-6.922821 -22.699158,-7.747238 -17.863739,0.850662c-18.427368,-13.947388 -29.375336,1.71109 -24.668945,7.655869c-6.355652,-13.098434 -22.93457,-10.73056 -24.668976,-2.551956c-4.887817,-8.237228 -13.081696,-8.038818 -14.46109,2.551956c-2.480804,-4.991043 -19.818787,-4.319427 -13.610474,8.506546c-5.600342,-10.419067 -13.456543,-5.047165 -21.266357,0c-11.0522,-0.092407 -11.828323,3.240524 -9.357178,7.655884c-15.403885,-1.756577 -22.213943,5.300949 -20.415695,10.20784z"/>
  </g>
 </g>
</svg>